<?xml version="1.0" encoding="utf-8"?>
<!-- Generator: Adobe Illustrator 23.0.5, SVG Export Plug-In . SVG Version: 6.00 Build 0)  -->
<svg version="1.1" id="Capa_1" xmlns="http://www.w3.org/2000/svg" xmlns:xlink="http://www.w3.org/1999/xlink" x="0px" y="0px"
	 viewBox="0 0 3549 3200" style="enable-background:new 0 0 3549 3200;" xml:space="preserve">
<style type="text/css">
	.st0{fill:#2A353E;}
</style>
<g transform="translate(0.000000,3200.000000) scale(0.100000,-0.100000)">
	<path class="st0" d="M26465,28529c-3437-1909-10302-5721-15255-8471s-9501-5276-10106-5612c-996-553-1100-612-1085-626
		c27-25,150-81,276-125c157-56,409-153,2115-818c2859-1114,7814-3042,16320-6352C30795,1830,35269,89,35333,61c34-15,47-26,47-41
		c0-18,6-20,55-20h55v16000v16000h-1387l-1388-1L26465,28529z"/>
</g>
</svg>
